Poster: 
http://www.shotpix.com/images/49981311060566852168.jpg

Info:

Format : AVI
Format/Info : Audio Video Interleave
File size : 627 MiB
Duration : 2h 3mn
Overall bit rate : 707 Kbps

Video
ID : 0
Format : AVC
Format/Info : Advanced Video Codec
Format profile : High@L2.1
Format settings, CABAC : Yes
Format settings, ReFrames : 3 frames
Codec ID : H264
Duration : 2h 3mn
Bit rate : 630 Kbps
Width : 624 pixels
Height : 256 pixels
Display aspect ratio : 2.40:1
Frame rate mode : Variable
Frame rate : 29.970 fps
Color space : YUV
Chroma subsampling : 4:2:0
Bit depth : 8 bits
Scan type : Progressive
Bits/(Pixel*Frame) : 0.132
Stream size : 558 MiB (89%)
Writing library : x264 core 120 r2151 a3f4407

Audio
ID : 1
Format : MPEG Audio
Format version : Version 1
Format profile : Layer 3
Codec ID : 55
Codec ID/Hint : MP3
Duration : 2h 3mn
Source duration : 2h 3mn
Bit rate mode : Constant
Bit rate : 64.0 Kbps
Channel(s) : 2 channels
Sampling rate : 48.0 KHz
Compression mode : Lossy
Stream size : 56.7 MiB (9%)
Alignment : Split accross interleaves
Interleave, duration : 24 ms (0.72 video frame)

Screens: 
http://www.shotpix.com/images/85488303496741672624.png 
http://www.shotpix.com/images/79092101893431869653.png 
http://www.shotpix.com/images/42962897661406142418.png 
http://www.shotpix.com/images/02054495901036730111.png 
http://www.shotpix.com/images/49169245573552579121.png 
http://www.shotpix.com/images/13880686068988967600.png 
http://www.shotpix.com/images/26746026251148148778.png 
http://www.shotpix.com/images/15016419586454624204.png 
http://www.shotpix.com/images/78907688351068200790.png 
http://www.shotpix.com/images/87424921894449821876.png 
http://www.shotpix.com/images/93117892722452773040.png


